<?xml version="1.0" standalone="no"?>
<!DOCTYPE svg PUBLIC "-//W3C//DTD SVG 20010904//EN"
 "http://www.w3.org/TR/2001/REC-SVG-20010904/DTD/svg10.dtd">
<svg version="1.0" xmlns="http://www.w3.org/2000/svg"
 width="32.000000pt" height="32.000000pt" viewBox="0 0 32.000000 32.000000"
 preserveAspectRatio="xMidYMid meet">

<g transform="translate(0.000000,32.000000) scale(0.100000,-0.100000)"
fill="#000000" stroke="none">
<path d="M12 308 c-17 -17 -17 -279 0 -296 17 -17 279 -17 296 0 17 17 17 279
0 296 -17 17 -279 17 -296 0z m118 -108 c13 -27 26 -50 30 -50 4 0 17 23 30
50 36 77 50 66 50 -40 0 -53 -4 -90 -10 -90 -6 0 -10 31 -10 73 l-1 72 -25
-47 c-13 -27 -29 -48 -34 -48 -5 0 -21 21 -34 48 l-25 47 -1 -72 c0 -42 -4
-73 -10 -73 -6 0 -10 37 -10 90 0 106 14 117 50 40z"/>
</g>
</svg>
